<?xml version="1.0" encoding="UTF-8"?>
<svg version="1.1" xmlns="http://www.w3.org/2000/svg" width="532" height="394">
<path d="M0 0 C1.05096155 -0.00467997 2.10192309 -0.00935994 3.18473196 -0.01418173 C6.68208285 -0.02608179 10.17903828 -0.01669384 13.6763916 -0.00723267 C16.19363126 -0.01130057 18.71086913 -0.01664368 21.22810364 -0.02316284 C27.3409203 -0.03540005 33.45359218 -0.03363972 39.56641066 -0.02492492 C44.53701471 -0.01813355 49.50758782 -0.01723792 54.47819519 -0.02049637 C55.1872209 -0.02095607 55.89624661 -0.02141577 56.62675795 -0.0218894 C58.06739431 -0.02284863 59.50803065 -0.02382127 60.94866699 -0.02480717 C74.43891036 -0.03334978 87.92909245 -0.0235447 101.41932577 -0.00740607 C112.97981719 0.00599609 124.54021822 0.00366768 136.10070801 -0.01016235 C149.54461418 -0.02623816 162.98846671 -0.03252591 176.43238115 -0.02332556 C177.86754385 -0.02236997 179.30270655 -0.02142686 180.73786926 -0.02049637 C181.4438886 -0.02003354 182.14990794 -0.01957072 182.87732181 -0.01909386 C187.83857174 -0.01650997 192.79978747 -0.02086198 197.7610321 -0.02793503 C204.44566221 -0.03725609 211.13009588 -0.03056418 217.81471825 -0.01325226 C220.26483566 -0.00929283 222.71496747 -0.01041212 225.16507912 -0.01704025 C228.51559969 -0.02526705 231.86557818 -0.01491984 235.21606445 0 C236.18008855 -0.00669217 237.14411265 -0.01338433 238.13734961 -0.02027929 C248.85632234 0.07197519 257.40178655 2.77804571 265.10803223 10.38095093 C273.53725475 20.30093115 274.5548216 30.96083366 274.48034668 43.59213257 C274.4827797 44.99770883 274.48650395 46.40328334 274.4914093 47.80885315 C274.50075129 51.59809457 274.49145019 55.38707465 274.47807717 59.17629552 C274.46669114 63.1572286 274.47087562 67.13815015 274.4728241 71.11909485 C274.47370472 77.80090562 274.46267446 84.48261449 274.44421387 91.16439819 C274.42304114 98.87159889 274.41953963 106.57865053 274.42577583 114.28587443 C274.43148492 121.72468014 274.42580619 129.16343378 274.41460228 136.60223198 C274.40997762 139.75710458 274.40907314 142.9119451 274.41118813 146.06682014 C274.41308201 149.78597746 274.40488328 153.50498465 274.38912773 157.22410774 C274.38291325 159.22733745 274.38637559 161.23058998 274.39019775 163.23382568 C274.32533419 174.30770111 273.07139947 183.41746756 266.10803223 192.38095093 C258.87757587 199.38792045 250.71329644 203.49584938 240.5382967 203.51237869 C239.20021551 203.51814041 239.20021551 203.51814041 237.83510238 203.52401853 C236.37889276 203.5227188 236.37889276 203.5227188 234.89326477 203.52139282 C233.85474245 203.52436394 232.81622013 203.52733507 231.74622744 203.53039622 C228.26110801 203.53907812 224.77602295 203.54059105 221.29089355 203.54208374 C218.79409715 203.54671228 216.29730146 203.55173699 213.80050659 203.55712891 C207.0131563 203.57025161 200.22581946 203.5767345 193.43845963 203.58113956 C189.19784499 203.58390485 184.95723261 203.58814273 180.71661949 203.59264374 C168.96837539 203.60483456 157.22013311 203.61513407 145.47188282 203.61851883 C144.34455835 203.61884818 144.34455835 203.61884818 143.19445966 203.61918418 C142.44114301 203.61940246 141.68782637 203.61962074 140.91168195 203.61984563 C139.38525379 203.62028909 137.85882562 203.62073565 136.33239746 203.6211853 C135.57524131 203.62140673 134.81808515 203.62162816 134.03798487 203.6218563 C121.77479697 203.62580265 109.51166854 203.64325253 97.2485036 203.66654482 C84.64865639 203.6902828 72.04883899 203.7027218 59.44896907 203.70388675 C52.37843535 203.70480216 45.30797913 203.71052066 38.23746681 203.72870636 C31.58494918 203.74575702 24.93255242 203.74734169 18.28001022 203.73856735 C15.84117807 203.73779706 13.40233801 203.74213864 10.96352577 203.7520256 C7.62808207 203.76475223 4.29315832 203.75886393 0.9577179 203.7484436 C-0.00193491 203.75650001 -0.96158771 203.76455641 -1.9503209 203.77285695 C-12.15694965 203.69854403 -21.0478698 201.05294231 -28.89196777 194.38095093 C-36.2322 186.49581064 -39.00186998 177.97195595 -39.03240967 167.25991821 C-39.03811981 166.05448364 -39.04382996 164.84904907 -39.04971313 163.60708618 C-39.05083099 162.29786194 -39.05194885 160.9886377 -39.05310059 159.63973999 C-39.05773384 158.23637768 -39.06275918 156.83301661 -39.06814575 155.42965698 C-39.08122272 151.62780965 -39.08770546 147.82597994 -39.09215641 144.02411366 C-39.09509469 141.64502796 -39.09920089 139.265947 -39.10366058 136.88686371 C-39.11732299 129.43204975 -39.12699585 121.97724672 -39.13086247 114.52242112 C-39.13534059 105.93763503 -39.15288226 97.35300837 -39.18186307 88.76827073 C-39.20352752 82.11836369 -39.21356929 75.46850134 -39.21490359 68.81855941 C-39.21594819 64.85333471 -39.22178213 60.88826013 -39.23972321 56.92307281 C-39.25628665 53.18999437 -39.25831967 49.45717758 -39.2495842 45.72407532 C-39.24845538 43.71500738 -39.2621085 41.7059478 -39.27633667 39.69692993 C-39.22485136 28.44873981 -37.30262319 19.10222444 -29.89196777 10.38095093 C-21.27913228 1.88361323 -11.79939144 -0.08191027 0 0 Z " fill="#fec335" transform="translate(140.8919677734375,22.619049072265625)"/>
<path d="M0 0 C1.05096155 -0.00467997 2.10192309 -0.00935994 3.18473196 -0.01418173 C6.68208285 -0.02608179 10.17903828 -0.01669384 13.6763916 -0.00723267 C16.19363126 -0.01130057 18.71086913 -0.01664368 21.22810364 -0.02316284 C27.3409203 -0.03540005 33.45359218 -0.03363972 39.56641066 -0.02492492 C44.53701471 -0.01813355 49.50758782 -0.01723792 54.47819519 -0.02049637 C55.1872209 -0.02095607 55.89624661 -0.02141577 56.62675795 -0.0218894 C58.06739431 -0.02284863 59.50803065 -0.02382127 60.94866699 -0.02480717 C74.43891036 -0.03334978 87.92909245 -0.0235447 101.41932577 -0.00740607 C112.97981719 0.00599609 124.54021822 0.00366768 136.10070801 -0.01016235 C149.54461418 -0.02623816 162.98846671 -0.03252591 176.43238115 -0.02332556 C177.86754385 -0.02236997 179.30270655 -0.02142686 180.73786926 -0.02049637 C181.4438886 -0.02003354 182.14990794 -0.01957072 182.87732181 -0.01909386 C187.83857174 -0.01650997 192.79978747 -0.02086198 197.7610321 -0.02793503 C204.44566221 -0.03725609 211.13009588 -0.03056418 217.81471825 -0.01325226 C220.26483566 -0.00929283 222.71496747 -0.01041212 225.16507912 -0.01704025 C228.51559969 -0.02526705 231.86557818 -0.01491984 235.21606445 0 C236.18008855 -0.00669217 237.14411265 -0.01338433 238.13734961 -0.02027929 C248.85632234 0.07197519 257.40178655 2.77804571 265.10803223 10.38095093 C273.53725475 20.30093115 274.5548216 30.96083366 274.48034668 43.59213257 C274.4827797 44.99770883 274.48650395 46.40328334 274.4914093 47.80885315 C274.50075129 51.59809457 274.49145019 55.38707465 274.47807717 59.17629552 C274.46669114 63.1572286 274.47087562 67.13815015 274.4728241 71.11909485 C274.47370472 77.80090562 274.46267446 84.48261449 274.44421387 91.16439819 C274.42304114 98.87159889 274.41953963 106.57865053 274.42577583 114.28587443 C274.43148492 121.72468014 274.42580619 129.16343378 274.41460228 136.60223198 C274.40997762 139.75710458 274.40907314 142.9119451 274.41118813 146.06682014 C274.41308201 149.78597746 274.40488328 153.50498465 274.38912773 157.22410774 C274.38291325 159.22733745 274.38637559 161.23058998 274.39019775 163.23382568 C274.32533419 174.30770111 273.07139947 183.41746756 266.10803223 192.38095093 C258.87757587 199.38792045 250.71329644 203.49584938 240.5382967 203.51237869 C239.20021551 203.51814041 239.20021551 203.51814041 237.83510238 203.52401853 C236.37889276 203.5227188 236.37889276 203.5227188 234.89326477 203.52139282 C233.85474245 203.52436394 232.81622013 203.52733507 231.74622744 203.53039622 C228.26110801 203.53907812 224.77602295 203.54059105 221.29089355 203.54208374 C218.79409715 203.54671228 216.29730146 203.55173699 213.80050659 203.55712891 C207.0131563 203.57025161 200.22581946 203.5767345 193.43845963 203.58113956 C189.19784499 203.58390485 184.95723261 203.58814273 180.71661949 203.59264374 C168.96837539 203.60483456 157.22013311 203.61513407 145.47188282 203.61851883 C144.34455835 203.61884818 144.34455835 203.61884818 143.19445966 203.61918418 C142.44114301 203.61940246 141.68782637 203.61962074 140.91168195 203.61984563 C139.38525379 203.62028909 137.85882562 203.62073565 136.33239746 203.6211853 C135.57524131 203.62140673 134.81808515 203.62162816 134.03798487 203.6218563 C121.77479697 203.62580265 109.51166854 203.64325253 97.2485036 203.66654482 C84.64865639 203.6902828 72.04883899 203.7027218 59.44896907 203.70388675 C52.37843535 203.70480216 45.30797913 203.71052066 38.23746681 203.72870636 C31.58494918 203.74575702 24.93255242 203.74734169 18.28001022 203.73856735 C15.84117807 203.73779706 13.40233801 203.74213864 10.96352577 203.7520256 C7.62808207 203.76475223 4.29315832 203.75886393 0.9577179 203.7484436 C-0.00193491 203.75650001 -0.96158771 203.76455641 -1.9503209 203.77285695 C-12.15694965 203.69854403 -21.0478698 201.05294231 -28.89196777 194.38095093 C-36.2322 186.49581064 -39.00186998 177.97195595 -39.03240967 167.25991821 C-39.03811981 166.05448364 -39.04382996 164.84904907 -39.04971313 163.60708618 C-39.05083099 162.29786194 -39.05194885 160.9886377 -39.05310059 159.63973999 C-39.05773384 158.23637768 -39.06275918 156.83301661 -39.06814575 155.42965698 C-39.08122272 151.62780965 -39.08770546 147.82597994 -39.09215641 144.02411366 C-39.09509469 141.64502796 -39.09920089 139.265947 -39.10366058 136.88686371 C-39.11732299 129.43204975 -39.12699585 121.97724672 -39.13086247 114.52242112 C-39.13534059 105.93763503 -39.15288226 97.35300837 -39.18186307 88.76827073 C-39.20352752 82.11836369 -39.21356929 75.46850134 -39.21490359 68.81855941 C-39.21594819 64.85333471 -39.22178213 60.88826013 -39.23972321 56.92307281 C-39.25628665 53.18999437 -39.25831967 49.45717758 -39.2495842 45.72407532 C-39.24845538 43.71500738 -39.2621085 41.7059478 -39.27633667 39.69692993 C-39.22485136 28.44873981 -37.30262319 19.10222444 -29.89196777 10.38095093 C-21.27913228 1.88361323 -11.79939144 -0.08191027 0 0 Z M-27.89196777 22.38095093 C-29.72168878 26.23440807 -30.14615743 29.29630609 -30.15939331 33.54704285 C-30.16792328 34.78764969 -30.17645325 36.02825653 -30.1852417 37.30645752 C-30.18454274 38.67349256 -30.18361971 40.0405275 -30.18249512 41.40756226 C-30.18848235 42.85343268 -30.19528835 44.29929992 -30.20285034 45.74516296 C-30.22049883 49.66678371 -30.22520526 53.58831714 -30.22648191 57.50997376 C-30.22790485 59.96224703 -30.23217716 62.4144982 -30.23747635 64.86676598 C-30.25597357 73.4282306 -30.26414744 81.989633 -30.26257324 90.55111694 C-30.26137227 98.52130567 -30.28246667 106.49122341 -30.31406057 114.46134359 C-30.34024724 121.31248106 -30.35093952 128.16353017 -30.34966242 135.01471728 C-30.34915344 139.10288854 -30.3548008 143.19081896 -30.37601852 147.2789402 C-30.39544114 151.12615858 -30.3954983 154.97290741 -30.38098526 158.82014275 C-30.37890094 160.22778131 -30.38357559 161.63544958 -30.39570618 163.04303741 C-30.47031923 172.30474324 -29.84841513 178.40736022 -23.96228027 185.80673218 C-23.32032715 186.42934937 -22.67837402 187.05196655 -22.01696777 187.69345093 C-21.3801709 188.32895874 -20.74337402 188.96446655 -20.08728027 189.61923218 C-14.05526254 194.45987274 -8.92993223 194.81755096 -1.48774719 194.78208923 C-0.44090891 194.7888859 0.60592937 194.79568257 1.68449003 194.8026852 C5.19190131 194.82167382 8.6989639 194.81921921 12.2064209 194.81674194 C14.72145029 194.82571851 17.23647555 194.83592652 19.75149536 194.84727478 C25.87453487 194.87103723 31.9974467 194.88043811 38.12052801 194.88211191 C43.10028041 194.88353897 48.08000431 194.88971108 53.0597477 194.89921379 C67.19033579 194.92562835 81.3208556 194.93947306 95.45146855 194.93722237 C96.21284404 194.9371025 96.97421952 194.93698263 97.75866699 194.93685913 C98.52097656 194.93673649 99.28328614 194.93661385 100.068696 194.93648749 C112.41530021 194.93526886 124.76162962 194.96395942 137.10815438 195.00627423 C149.79732625 195.04941872 162.48636427 195.07008178 175.17561132 195.0674929 C182.29487261 195.06649867 189.41384595 195.07466491 196.533041 195.10702705 C203.23172045 195.13728321 209.92969243 195.13628248 216.62843704 195.11447716 C219.08298061 195.11134412 221.53756222 195.11840181 223.99204063 195.13655853 C241.21621612 195.84964995 241.21621612 195.84964995 256.10803223 188.38095093 C261.51397955 182.54825658 265.47402525 176.2693371 265.50244141 168.13929749 C265.51946609 166.2911142 265.51946609 166.2911142 265.53683472 164.40559387 C265.53419177 163.053222 265.53122062 161.70085074 265.5279541 160.34848022 C265.53529941 158.91393373 265.54388698 157.47939313 265.55361938 156.04486084 C265.57579841 152.15831961 265.57876781 148.27199063 265.57687187 144.38539481 C265.57675198 141.13511369 265.58532409 137.88487723 265.59364939 134.63460857 C265.61287136 126.96221634 265.61577207 119.2899329 265.60900879 111.61752319 C265.60237229 103.71712787 265.6252191 95.81719994 265.66232252 87.91689938 C265.69307113 81.12176225 265.70437387 74.32677505 265.70048571 67.53156978 C265.69842311 63.47854676 265.7038208 59.42588733 265.7283783 55.37293053 C265.75072803 51.55842688 265.7487004 47.74467983 265.72845078 43.93017197 C265.72505488 42.53585402 265.73006834 41.14148433 265.74443436 39.74723625 C265.83514325 30.28558191 264.84574971 23.25559667 258.08068848 16.29501343 C257.45033691 15.8696228 256.81998535 15.44423218 256.17053223 15.00595093 C255.54275879 14.56509155 254.91498535 14.12423218 254.26818848 13.67001343 C253.55533691 13.2446228 252.84248535 12.81923218 252.10803223 12.38095093 C251.28990964 11.86763749 250.47178705 11.35432405 249.62887287 10.82545567 C244.86923395 8.87270584 240.71087098 8.95575394 235.61442566 8.97981262 C234.55800914 8.97301595 233.50159262 8.96621928 232.41316348 8.95921665 C228.8734461 8.94022694 225.33407421 8.9426827 221.79431152 8.94515991 C219.25633295 8.93618352 216.71835848 8.92597556 214.1803894 8.91462708 C208.0018732 8.89086521 201.82348353 8.88146383 195.64492591 8.87978994 C190.62129677 8.87836312 185.5976959 8.87219218 180.5740757 8.86268806 C166.32268135 8.83627588 152.0713547 8.82242875 137.8199357 8.82467949 C137.05206078 8.82479936 136.28418585 8.82491922 135.49304199 8.82504272 C134.33981886 8.82522669 134.33981886 8.82522669 133.16329829 8.82541437 C120.70541315 8.82663355 108.24780011 8.79792831 95.78999367 8.75562762 C82.9900904 8.71250923 70.19031978 8.69181855 57.39034206 8.69440895 C50.2074295 8.69540395 43.02480222 8.68720369 35.84195518 8.6548748 C29.08582927 8.62466074 22.33040517 8.62559273 15.57421494 8.6474247 C13.09625558 8.65056238 10.61825872 8.64347244 8.14036369 8.62534332 C4.75373136 8.60217267 1.36917759 8.61611896 -2.01741028 8.63923645 C-2.9948576 8.62380576 -3.97230491 8.60837507 -4.97937185 8.59247679 C-14.90158463 8.74185249 -22.47972063 14.16498231 -27.89196777 22.38095093 Z " fill="#102853" transform="translate(140.8919677734375,22.619049072265625)"/>
<path d="M0 0 C0.73056884 0.00468233 1.46113767 0.00936466 2.21384495 0.01418889 C2.99051697 0.011282 3.76718899 0.00837512 4.56739652 0.00538015 C7.19748396 -0.00198007 9.82734248 0.00505131 12.45742863 0.01190388 C14.35101395 0.00960183 16.24459837 0.00642703 18.13818091 0.00244939 C23.36314742 -0.00594232 28.58804139 -0.00175359 33.81300825 0.00442183 C39.43951757 0.00892752 45.066014 0.00197196 50.6925208 -0.00353801 C61.72335283 -0.01245388 72.75415773 -0.01050027 83.78499085 -0.00471273 C92.7461233 -0.00020484 101.70724813 0.00042046 110.66838139 -0.00176036 C111.94142378 -0.00206683 113.21446616 -0.0023733 114.52608559 -0.00268905 C117.11185406 -0.00332847 119.69762253 -0.00397689 122.283391 -0.00463423 C145.8651407 -0.01018103 169.44687218 -0.0044186 193.02861882 0.00605096 C214.57175055 0.0155427 236.11485864 0.01469346 257.65799016 0.00512898 C281.84266472 -0.00557229 306.02732246 -0.00979457 330.21200007 -0.00364649 C332.78851479 -0.00300936 335.36502951 -0.00238062 337.94154423 -0.00176036 C339.20939945 -0.00145181 340.47725466 -0.00114326 341.78352973 -0.00082536 C350.73892458 0.000905 359.69431108 -0.00202085 368.64970464 -0.00671947 C379.55612067 -0.01231568 390.46250791 -0.01083851 401.36892062 -0.00015798 C406.93868131 0.00511577 412.50839388 0.00712665 418.07815427 0.00054371 C423.16934316 -0.00538281 428.260439 -0.00219564 433.35161936 0.00849882 C435.20084175 0.01074694 437.05007189 0.00956529 438.89928937 0.00474724 C441.39833417 -0.00126822 443.89705337 0.00483568 446.39608067 0.01418889 C447.49193393 0.00716539 447.49193393 0.00716539 448.60992563 0 C453.57666206 0.03757041 453.57666206 0.03757041 455.80496281 2.26587117 C455.92996281 5.89087117 455.92996281 5.89087117 455.80496281 9.26587117 C452.79503332 10.77083592 449.69702096 10.40229043 446.39608067 10.39171231 C445.61940866 10.39316575 444.84273664 10.39461919 444.04252911 10.39611667 C441.41249922 10.3997967 438.78252656 10.39628102 436.15249699 10.39285481 C434.2589126 10.39400584 432.36532842 10.39559324 430.47174472 10.39758205 C425.24679625 10.40177789 420.02186593 10.39968354 414.79691738 10.39659584 C409.17041191 10.39434299 403.54390967 10.39782077 397.91740483 10.40057576 C386.88657931 10.40503369 375.85576057 10.40405688 364.82493478 10.40116312 C355.86380403 10.39890917 346.90267519 10.39859652 337.94154423 10.39968693 C336.03198066 10.39991678 336.03198066 10.39991678 334.08384004 10.40015128 C331.49807157 10.40047098 328.9123031 10.4007952 326.32653463 10.40112387 C302.74479025 10.40389726 279.16305042 10.40101605 255.58130681 10.39578127 C234.03818104 10.3910354 212.49506118 10.39146002 190.95193547 10.39624226 C166.76726435 10.40159289 142.58259744 10.40370403 118.39792556 10.40063 C115.82141084 10.40031143 113.24489611 10.39999706 110.66838139 10.39968693 C109.40052618 10.39953266 108.13267097 10.39937838 106.8263959 10.39921943 C97.87100346 10.39835425 88.91561311 10.39981718 79.96022099 10.40216649 C69.05381299 10.40496459 58.14741218 10.404226 47.241005 10.39888574 C41.67125642 10.39624887 36.10151987 10.39524343 30.53177136 10.39853489 C25.44060786 10.40149814 20.34946763 10.39990455 15.25830626 10.39455734 C13.40908317 10.39343328 11.55985813 10.3940241 9.71063626 10.39643313 C7.21167723 10.39944076 4.71279961 10.39638878 2.21384495 10.39171231 C1.1179917 10.39522406 1.1179917 10.39522406 0 10.39880675 C-4.96673643 10.38002154 -4.96673643 10.38002154 -7.19503719 9.26587117 C-7.32003719 5.89087117 -7.32003719 5.89087117 -7.19503719 2.26587117 C-4.73292849 -0.19623753 -3.35991039 0.02541573 0 0 Z " fill="#0E234A" transform="translate(34.19503718614578,333.7341288328171)"/>
<path d="M0 0 C1.28674732 -0.00260775 2.57349463 -0.00521549 3.89923429 -0.00790226 C5.34586571 -0.00573973 6.79249698 -0.00348306 8.23912811 -0.0011425 C9.76133019 -0.00229333 11.28353199 -0.0038806 12.8057332 -0.00586975 C17.00873144 -0.01006831 21.21170716 -0.00797002 25.41470551 -0.00488353 C29.93963163 -0.00263178 34.46455373 -0.00610791 38.98947906 -0.00886345 C47.86174722 -0.01332257 56.73400694 -0.01234405 65.60627544 -0.00945081 C72.81352932 -0.00719733 80.02078084 -0.00688401 87.22803497 -0.00797462 C88.25171906 -0.00812786 89.27540314 -0.00828109 90.33010796 -0.00843897 C92.40935369 -0.00875868 94.48859943 -0.00908289 96.56784517 -0.00941156 C116.08949682 -0.01226676 135.61114379 -0.00897869 155.13279468 -0.00361119 C171.90273858 0.00085688 188.67267555 0.00008096 205.44261932 -0.00452995 C224.89186641 -0.009875 244.34110939 -0.01199207 263.79035711 -0.00891769 C265.86218357 -0.00859912 267.93401003 -0.00828475 270.00583649 -0.00797462 C271.02535748 -0.00782035 272.04487846 -0.00766607 273.09529403 -0.00750712 C280.29835549 -0.00664176 287.50141435 -0.00810526 294.7044754 -0.01045418 C303.4761871 -0.01325161 312.24788985 -0.01251513 321.01960051 -0.00717343 C325.49962585 -0.00453564 329.97963624 -0.00353266 334.45966148 -0.00682259 C338.55405349 -0.00978396 342.64841655 -0.00819541 346.7428059 -0.00284503 C348.23067062 -0.00172016 349.71853774 -0.00231355 351.20640093 -0.00472082 C353.21555615 -0.00772425 355.22471813 -0.00407179 357.23387146 0 C358.35388408 0.00016235 359.4738967 0.0003247 360.6278491 0.00049198 C363.11693573 0.12584114 363.11693573 0.12584114 364.11693573 1.12584114 C364.24193573 4.62584114 364.24193573 4.62584114 364.11693573 8.12584114 C362.32568847 9.9170884 359.65217699 9.25133173 357.23387146 9.25168228 C355.94712414 9.25429003 354.66037683 9.25689778 353.33463717 9.25958455 C351.88800575 9.25742202 350.44137448 9.25516534 348.99474335 9.25282478 C347.47254127 9.25397561 345.95033947 9.25556288 344.42813826 9.25755203 C340.22514002 9.26175059 336.0221643 9.2596523 331.81916595 9.25656581 C327.29423983 9.25431406 322.76931773 9.25779019 318.2443924 9.26054573 C309.37212424 9.26500485 300.49986452 9.26402633 291.62759602 9.26113309 C284.42034214 9.25887961 277.21309062 9.25856629 270.00583649 9.25965691 C268.9821524 9.25981014 267.95846832 9.25996337 266.9037635 9.26012125 C264.82451777 9.26044096 262.74527203 9.26076517 260.66602629 9.26109384 C241.14437464 9.26394905 221.62272767 9.26066097 202.10107678 9.25529347 C185.33113288 9.2508254 168.56119591 9.25160132 151.79125214 9.25621223 C132.34200505 9.26155728 112.89276207 9.26367435 93.44351435 9.26059997 C91.37168789 9.2602814 89.29986143 9.25996703 87.22803497 9.25965691 C86.20851398 9.25950263 85.188993 9.25934836 84.13857743 9.2591894 C76.93551597 9.25832404 69.73245711 9.25978754 62.52939606 9.26213646 C53.75768436 9.26493389 44.98598161 9.26419741 36.21427095 9.25885572 C31.73424561 9.25621792 27.25423522 9.25521494 22.77420998 9.25850487 C18.67981797 9.26146624 14.58545491 9.25987769 10.49106556 9.25452732 C9.00320084 9.25340245 7.51533372 9.25399584 6.02747053 9.2564031 C4.01831531 9.25940654 2.00915333 9.25575407 0 9.25168228 C-1.12001262 9.25151993 -2.24002524 9.25135758 -3.39397764 9.2511903 C-5.88306427 9.12584114 -5.88306427 9.12584114 -6.88306427 8.12584114 C-7.00806427 4.62584114 -7.00806427 4.62584114 -6.88306427 1.12584114 C-5.09181701 -0.66540612 -2.41830553 0.00035055 0 0 Z " fill="#0E2349" transform="translate(79.88306427001953,307.87415885925293)"/>
<path d="M0 0 C9.30898458 10.44700226 7.76503784 25.53854062 7.33056641 38.70751953 C6.57943504 50.93008412 1.19142996 61.11421707 -4.83984375 71.48046875 C-6.15984375 73.79046875 -7.47984375 76.10046875 -8.83984375 78.48046875 C-3.22984375 78.48046875 2.38015625 78.48046875 8.16015625 78.48046875 C8.18697784 82.95967472 8.20690802 87.43872226 8.22265625 91.91796875 C8.23103516 93.19736328 8.23941406 94.47675781 8.24804688 95.79492188 C8.25126953 97.00986328 8.25449219 98.22480469 8.2578125 99.4765625 C8.26304932 100.60247803 8.26828613 101.72839355 8.27368164 102.88842773 C8.16015625 105.48046875 8.16015625 105.48046875 7.16015625 106.48046875 C4.50559432 106.58142439 1.87760449 106.62017873 -0.77734375 106.61328125 C-1.97025024 106.61471634 -1.97025024 106.61471634 -3.18725586 106.61618042 C-4.87190835 106.61686218 -6.55656346 106.61500818 -8.24121094 106.61083984 C-10.82883572 106.6054915 -13.41628691 106.61078494 -16.00390625 106.6171875 C-17.63671914 106.61652672 -19.26953191 106.61524555 -20.90234375 106.61328125 C-21.68150146 106.61530548 -22.46065918 106.61732971 -23.26342773 106.61941528 C-28.7248927 106.5954198 -28.7248927 106.5954198 -29.83984375 105.48046875 C-31.78660764 90.07222541 -30.68611969 78.70670084 -21.234375 66.41357422 C-18.76476214 62.9901858 -16.85187699 59.27899378 -14.90234375 55.54296875 C-14.53761963 54.86878906 -14.17289551 54.19460937 -13.79711914 53.5 C-10.35175278 46.9707536 -7.36780298 40.23544686 -7.58984375 32.73046875 C-7.6053125 31.84875 -7.62078125 30.96703125 -7.63671875 30.05859375 C-7.84098078 27.46603716 -8.27420332 25.01672744 -8.83984375 22.48046875 C-10.48984375 22.48046875 -12.13984375 22.48046875 -13.83984375 22.48046875 C-15.92371264 27.75960328 -16.41894379 32.87585344 -16.83984375 38.48046875 C-21.228737 37.81548492 -24.82099225 36.29289198 -28.83984375 34.48046875 C-29.61930869 21.25121661 -27.24122233 9.97019 -18.83984375 -0.51953125 C-14.03911203 -5.32026297 -5.00411115 -4.13290709 0 0 Z " fill="#102853" transform="translate(345.83984375,61.51953125)"/>
<path d="M0 0 C0.06731323 0.96039185 0.06731323 0.96039185 0.13598633 1.94018555 C0.34805452 4.85711354 0.58007536 7.77212634 0.8125 10.6875 C0.88275391 11.69490234 0.95300781 12.70230469 1.02539062 13.74023438 C1.5800115 20.85020672 1.5800115 20.85020672 5 27 C5.41636719 27.61101562 5.83273438 28.22203125 6.26171875 28.8515625 C10.15254198 33.691107 14.62990399 36.96676665 19.75 40.375 C32.26670233 48.71466205 43.90335867 57.73042233 47.53515625 73.03125 C49.19536328 83.6342529 48.39847257 93.08393125 42.421875 102.13671875 C38.99946628 106.62157853 35.65118819 109.09313703 30 110 C30.04640625 108.69804687 30.0928125 107.39609375 30.140625 106.0546875 C30.17815847 104.32814804 30.21455693 102.60158364 30.25 100.875 C30.30027344 99.59109375 30.30027344 99.59109375 30.3515625 98.28125 C30.43831919 92.64206492 29.82384285 89.4324822 26 85 C23.94492251 82.9765997 23.94492251 82.9765997 21.625 81.25 C20.75359375 80.57453125 19.8821875 79.8990625 18.984375 79.203125 C16.25087585 77.18520155 13.48656379 75.22553873 10.70214844 73.27929688 C2.57369802 67.58807825 -4.99319787 61.76190373 -10 53 C-10 52.34 -10 51.68 -10 51 C-10.66 51 -11.32 51 -12 51 C-12.65239158 49.60721983 -13.29660552 48.21060788 -13.9375 46.8125 C-14.29714844 46.03519531 -14.65679687 45.25789063 -15.02734375 44.45703125 C-18.19461847 36.4561646 -18.41564449 25.44986452 -16.24609375 17.09765625 C-15.30261774 14.93321129 -14.263892 12.99171946 -13 11 C-12.38125 9.9275 -11.7625 8.855 -11.125 7.75 C-5.13636364 0 -5.13636364 0 0 0 Z " fill="#102853" transform="translate(186,58)"/>
<path d="M0 0 C5.20844412 3.04628328 9.01311725 7.27310265 11 13 C11.91723439 18.9882302 12.24334263 24.88392515 12.3125 30.9375 C12.34150391 31.77990234 12.37050781 32.62230469 12.40039062 33.49023438 C12.45602451 39.04934304 11.49523862 43.03765125 8.96166992 47.99438477 C7.98910009 50.02273236 7.31324468 51.77008759 7 54 C7.598125 54.53625 8.19625 55.0725 8.8125 55.625 C14.22013274 61.49614412 13.38695671 71.86701741 13.375 79.4375 C13.37367065 80.9531958 13.37367065 80.9531958 13.37231445 82.49951172 C13.25932573 89.59428573 12.52014853 95.71317956 9 102 C8.28457031 103.30130859 8.28457031 103.30130859 7.5546875 104.62890625 C5.35414569 107.98500896 2.72137585 109.70410189 -1 111 C-5.88659676 111.75471619 -9.64526713 111.76203724 -14 109.3125 C-16.05540521 106.93593772 -17.08601908 104.9912103 -18 102 C-18.66 102 -19.32 102 -20 102 C-23.87691462 93.25905966 -25.82764901 85.57331393 -26 76 C-20.96362376 73.91598225 -17.51345092 72.81042576 -12 73 C-11.86722656 73.85464844 -11.73445313 74.70929688 -11.59765625 75.58984375 C-11.42105469 76.69457031 -11.24445313 77.79929687 -11.0625 78.9375 C-10.88847656 80.03964844 -10.71445312 81.14179688 -10.53515625 82.27734375 C-10.28154864 84.90426929 -10.28154864 84.90426929 -9 86 C-6.54207971 86.33343551 -6.54207971 86.33343551 -4 86 C-1.02612545 81.53918818 -1.61233032 77.23354074 -2 72 C-2.85715849 68.49170286 -2.85715849 68.49170286 -4 66 C-5.9490625 66.0309375 -5.9490625 66.0309375 -7.9375 66.0625 C-9.29165633 66.08399454 -10.64756083 66.07148199 -12 66 C-13 65 -13 65 -13.11352539 62.86694336 C-13.10828857 61.95050049 -13.10305176 61.03405762 -13.09765625 60.08984375 C-13.09443359 59.10048828 -13.09121094 58.11113281 -13.08789062 57.09179688 C-13.07951172 56.05087891 -13.07113281 55.00996094 -13.0625 53.9375 C-13.05798828 52.89271484 -13.05347656 51.84792969 -13.04882812 50.77148438 C-13.03699913 48.1809334 -13.02051689 45.59049441 -13 43 C-10.98177083 42.83723958 -8.96354167 42.67447917 -6.9453125 42.51171875 C-4.60480784 42.12606964 -4.60480784 42.12606964 -3 39 C-2.72024023 36.35767058 -2.72024023 36.35767058 -2.8125 33.5 C-2.81894531 32.5409375 -2.82539063 31.581875 -2.83203125 30.59375 C-2.89707069 27.88502233 -2.89707069 27.88502233 -4 25 C-5.65 25 -7.3 25 -9 25 C-11.04442328 28.54366701 -11.26700438 30.60202629 -12 35 C-15.96 34.01 -19.92 33.02 -24 32 C-24.6861649 21.70752644 -21.99145095 12.74463232 -15.5625 4.62109375 C-10.83314081 -0.28561641 -6.70343889 -1.40701866 0 0 Z " fill="#102853" transform="translate(299,58)"/>
<path d="M0 0 C1.84851563 -0.05607422 1.84851563 -0.05607422 3.734375 -0.11328125 C7.93426162 0.39537168 9.45290651 1.15563543 12.25 4.3125 C13.359375 7.703125 13.359375 7.703125 14 11.5625 C14.11577393 12.22838135 14.23154785 12.8942627 14.35083008 13.58032227 C15.12659033 18.13979057 15.78054887 22.71187893 16.25 27.3125 C18.67653449 20.63953014 20.35191407 13.91106817 21.89160156 6.99047852 C23.1495253 1.4129747 23.1495253 1.4129747 24.25 0.3125 C26.88746756 0.18564194 29.48709166 0.12729383 32.125 0.125 C33.22521484 0.10663086 33.22521484 0.10663086 34.34765625 0.08789062 C38.18563514 0.07740434 39.98347074 0.13481383 43.25 2.3125 C44.28282012 5.41096036 44.31757779 7.32101872 44.19921875 10.5546875 C44.16111084 11.61187988 44.12300293 12.66907227 44.08374023 13.75830078 C44.03548096 14.88993652 43.98722168 16.02157227 43.9375 17.1875 C43.89117432 18.3410498 43.84484863 19.49459961 43.79711914 20.68310547 C43.33064715 31.26859928 42.4014352 41.78189846 41.25 52.3125 C39.64667209 52.39371924 38.04215974 52.45179134 36.4375 52.5 C35.09751953 52.55220703 35.09751953 52.55220703 33.73046875 52.60546875 C31.25 52.3125 31.25 52.3125 29.4440918 51.06518555 C27.96458623 48.89357024 27.90146921 47.69344703 27.95703125 45.08203125 C27.9715332 43.87836914 27.9715332 43.87836914 27.98632812 42.65039062 C28.01146484 41.81701172 28.03660156 40.98363281 28.0625 40.125 C28.07603516 39.28001953 28.08957031 38.43503906 28.10351562 37.56445312 C28.13884201 35.48019616 28.19264861 33.39626723 28.25 31.3125 C27.98521851 32.21343384 27.98521851 32.21343384 27.71508789 33.13256836 C26.91755 35.83937158 26.11509318 38.54469163 25.3125 41.25 C25.03470703 42.19552734 24.75691406 43.14105469 24.47070312 44.11523438 C24.20322266 45.01435547 23.93574219 45.91347656 23.66015625 46.83984375 C23.29096069 48.08882446 23.29096069 48.08882446 22.91430664 49.36303711 C22.25 51.3125 22.25 51.3125 21.25 52.3125 C19.0703125 52.515625 19.0703125 52.515625 16.375 52.5625 C15.49070313 52.58828125 14.60640625 52.6140625 13.6953125 52.640625 C10.71460872 52.24065836 10.10378269 51.62454975 8.25 49.3125 C7.54223633 47.13598633 7.54223633 47.13598633 7.08203125 44.64453125 C6.84963745 43.4376062 6.84963745 43.4376062 6.61254883 42.20629883 C6.43103271 41.18947021 6.2495166 40.1726416 6.0625 39.125 C5.464375 35.886875 4.86625 32.64875 4.25 29.3125 C3.92 36.9025 3.59 44.4925 3.25 52.3125 C-0.38 52.3125 -4.01 52.3125 -7.75 52.3125 C-10.32541623 49.73708377 -10.00904623 48.00806068 -10.02758789 44.49536133 C-10.01848389 43.67189209 -10.00937988 42.84842285 -10 42 C-9.99540771 41.14365967 -9.99081543 40.28731934 -9.98608398 39.4050293 C-9.87665367 31.12963327 -9.36800846 22.88081203 -8.8125 14.625 C-8.72581055 13.32973389 -8.63912109 12.03446777 -8.54980469 10.69995117 C-7.78494079 0.15343763 -7.78494079 0.15343763 0 0 Z " fill="#102853" transform="translate(154.75,241.6875)"/>
<path d="M0 0 C5.72228167 4.85526929 7.68582255 9.81678662 8.3984375 17.2578125 C8.50344782 26.9817681 7.75920729 37.13998987 1.875 45.3125 C-4.26447447 50.63337787 -10.26409873 52.41690005 -18.359375 52.06640625 C-23.70539752 51.41030349 -26.85958401 49.82791599 -30.75 45.9375 C-34.58902294 40.34349515 -35.30147916 35.17736872 -35.25 28.5 C-35.24508545 27.74928223 -35.2401709 26.99856445 -35.23510742 26.22509766 C-35.0529647 17.56257683 -33.40954926 9.0057597 -26.9375 2.75 C-18.83924673 -2.63788453 -9.05805313 -3.85449069 0 0 Z M-17.9375 13.75 C-21.1475513 19.94871975 -21.72815033 25.82910193 -20.9375 32.75 C-19.98285414 35.88069417 -19.98285414 35.88069417 -17.9375 37.75 C-15.55141389 38.99401278 -15.55141389 38.99401278 -12.9375 38.75 C-8.37560799 35.79818753 -7.08798194 30.81045318 -5.9375 25.75 C-5.22527597 20.44681838 -5.87369494 16.23628598 -8.9375 11.75 C-12.5781852 9.68694506 -14.93499113 11.20941557 -17.9375 13.75 Z " fill="#102853" transform="translate(354.9375,243.25)"/>
<path d="M0 0 C0.99 0.33 1.98 0.66 3 1 C6.553265 10.36125962 5.5914592 21.25231242 4 31 C4.45890625 30.566875 4.9178125 30.13375 5.390625 29.6875 C6.00421875 29.130625 6.6178125 28.57375 7.25 28 C7.85328125 27.443125 8.4565625 26.88625 9.078125 26.3125 C11 25 11 25 15 25 C14.96241221 33.49484137 12.11812484 39.6704934 8 47 C11.465 46.505 11.465 46.505 15 46 C14.61020794 52.55925943 13.57886807 57.94526627 11 64 C12.65 64 14.3 64 16 64 C16 66.97 16 69.94 16 73 C15.34 73 14.68 73 14 73 C13.9071875 74.5159375 13.9071875 74.5159375 13.8125 76.0625 C13.19197277 80.47813583 11.09849568 83.82986281 8 87 C6.515 87.495 6.515 87.495 5 88 C4.67 93.28 4.34 98.56 4 104 C2.02 104.495 2.02 104.495 0 105 C-1.75929499 103.24070501 -1.10116575 100.92279436 -1.13793945 98.578125 C-1.09415842 90.66703247 -1.09415842 90.66703247 -4.8125 84 C-5.34746094 83.50242187 -5.88242188 83.00484375 -6.43359375 82.4921875 C-9.83402471 79.25287422 -11.79249672 75.14866295 -12.2421875 70.4921875 C-12.24902396 68.31135691 -12.18105182 66.17262188 -12 64 C-10.68 64 -9.36 64 -8 64 C-8.28875 63.21496094 -8.5775 62.42992187 -8.875 61.62109375 C-10.90112658 55.88743694 -12.5541439 51.09558293 -12 45 C-10.35 45 -8.7 45 -7 45 C-6.67 44.01 -6.34 43.02 -6 42 C-6.99 41.67 -7.98 41.34 -9 41 C-11.53456392 35.55538121 -12.38750411 29.94172964 -12 24 C-6.86340856 24.76097651 -3.45685361 28.36120673 0 32 C-0.48726562 30.30230469 -0.48726562 30.30230469 -0.984375 28.5703125 C-2.13269174 23.96284375 -2.29785446 19.60461625 -2.25 14.875 C-2.25773438 14.10285156 -2.26546875 13.33070312 -2.2734375 12.53515625 C-2.25787587 7.96781911 -1.73029176 4.29826445 0 0 Z " fill="#fec335" transform="translate(252,61)"/>
<path d="M0 0 C3.49971199 -0.1173794 6.99890955 -0.18763961 10.5 -0.25 C11.48226562 -0.28351563 12.46453125 -0.31703125 13.4765625 -0.3515625 C19.63569095 -0.43368421 25.06046109 -0.02863535 30 4 C32.84666823 8.71030178 32.56577681 13.64504205 32 19 C30.375 21.9375 30.375 21.9375 29 24 C29.6501992 26.21734114 29.6501992 26.21734114 31 28 C33.31578944 32.63157888 32.66874614 39.28171534 31.45703125 44.20703125 C29.72599955 47.93728265 27.20179261 49.73734694 23.625 51.4375 C16.33140384 53.94805536 7.82612301 54.59718391 0.640625 51.59765625 C-2 50 -2 50 -3 48 C-3.48380182 38.68839743 -2.73898619 29.34619343 -2.0625 20.0625 C-1.97548828 18.78826172 -1.88847656 17.51402344 -1.79882812 16.20117188 C-1.41254261 10.73880852 -0.96965812 5.39426243 0 0 Z M14 11 C12.31369881 14.51033129 12.31369881 14.51033129 12.375 18.3125 C12.58125 18.869375 12.7875 19.42625 13 20 C16.93075644 19.42547254 16.93075644 19.42547254 20 17 C20.06754834 14.93400917 20.06754834 14.93400917 19 13 C16.50965614 11.70339566 16.50965614 11.70339566 14 11 Z M12 31 C10.76732652 32.00836062 10.76732652 32.00836062 10.90234375 34.06640625 C10.91394531 34.89011719 10.92554688 35.71382813 10.9375 36.5625 C10.94652344 37.38878906 10.95554688 38.21507812 10.96484375 39.06640625 C10.97644531 39.70449219 10.98804688 40.34257812 11 41 C12.88632452 41.63850448 12.88632452 41.63850448 15 42 C17.24755753 40.6483633 17.24755753 40.6483633 19 39 C18.67 36.69 18.34 34.38 18 32 C16.0085944 31.61866701 14.00720923 31.28674418 12 31 Z " fill="#102853" transform="translate(206,242)"/>
<path d="M0 0 C0.79148437 -0.01417969 1.58296875 -0.02835938 2.3984375 -0.04296875 C4.625 0.1875 4.625 0.1875 7.625 2.1875 C8.13671875 4.2109375 8.13671875 4.2109375 8.3125 6.5625 C8.41111328 7.71878906 8.41111328 7.71878906 8.51171875 8.8984375 C8.61535324 10.99256895 8.625 13.09080578 8.625 15.1875 C9.71167969 13.56328125 9.71167969 13.56328125 10.8203125 11.90625 C11.79582004 10.49926797 12.77244108 9.09305752 13.75 7.6875 C14.224375 6.97207031 14.69875 6.25664062 15.1875 5.51953125 C18.83598907 0.34262108 18.83598907 0.34262108 22.84375 -0.4453125 C25.625 0.1875 25.625 0.1875 28 2.8125 C29.76672864 6.48185948 30.06135781 8.18504563 29.625 12.1875 C27.98046875 14.890625 27.98046875 14.890625 25.8125 17.4375 C25.10480469 18.28828125 24.39710938 19.1390625 23.66796875 20.015625 C21.625 22.1875 21.625 22.1875 18.625 24.1875 C19.7362509 27.33092796 21.129664 30.14215632 22.82421875 33 C23.22833984 33.68320312 23.63246094 34.36640625 24.04882812 35.0703125 C24.89436994 36.48695443 25.74863124 37.89842671 26.61132812 39.3046875 C29.65565047 44.50111533 29.65565047 44.50111533 29.49609375 48.07421875 C28.32738945 50.90950586 27.37642914 51.81178543 24.625 53.1875 C20.43118071 53.79751008 18.44427423 53.75908667 14.9375 51.3125 C11.09800593 46.1239945 9.18076089 40.41054357 7.625 34.1875 C6.965 40.1275 6.305 46.0675 5.625 52.1875 C4.036875 52.249375 2.44875 52.31125 0.8125 52.375 C-0.52748047 52.42720703 -0.52748047 52.42720703 -1.89453125 52.48046875 C-4.375 52.1875 -4.375 52.1875 -6.1796875 51.1328125 C-8.00377624 48.16419749 -7.76991695 45.25029679 -7.6875 41.875 C-7.678396 41.11968994 -7.66929199 40.36437988 -7.65991211 39.58618164 C-7.49542248 31.42288697 -6.96309975 23.27161511 -6.4375 15.125 C-6.39420563 14.44335785 -6.35091125 13.7617157 -6.30630493 13.05941772 C-6.18015378 11.11083557 -6.04533723 9.1628203 -5.91015625 7.21484375 C-5.831604 6.07781006 -5.75305176 4.94077637 -5.67211914 3.76928711 C-5.19028294 -0.41758043 -3.86255835 0.03125047 0 0 Z " fill="#102853" transform="translate(289.375,241.8125)"/>
<path d="M0 0 C1.91541138 -0.10841951 3.83259773 -0.18578079 5.75 -0.25 C7.35101563 -0.31960937 7.35101563 -0.31960937 8.984375 -0.390625 C12.86369884 0.11187809 13.61496997 0.92062424 16 4 C17.0837094 6.89011376 17.71859374 9.84413628 18.359375 12.859375 C18.55347961 13.72258362 18.74758423 14.58579224 18.9475708 15.47515869 C19.35441439 17.29926536 19.75405968 19.12499047 20.14697266 20.95214844 C20.74571827 23.73013414 21.36894003 26.50174322 21.99609375 29.2734375 C22.38949078 31.05175879 22.78146412 32.83039575 23.171875 34.609375 C23.3561908 35.43048767 23.54050659 36.25160034 23.73040771 37.09759521 C24.80915473 42.17491516 25.17377428 46.80905038 25 52 C15.0024108 52.62054002 15.0024108 52.62054002 11.375 50.375 C9.74916306 47.56673619 9.29229968 45.21529643 9 42 C6.03 41.67 3.06 41.34 0 41 C-0.144375 42.258125 -0.28875 43.51625 -0.4375 44.8125 C-0.73748686 47.42667123 -1.15813297 49.47439892 -2 52 C-3.60332791 52.08121924 -5.20784026 52.13929134 -6.8125 52.1875 C-8.15248047 52.23970703 -8.15248047 52.23970703 -9.51953125 52.29296875 C-12 52 -12 52 -13.65356445 50.74047852 C-15.36820152 48.52404195 -15.31790806 47.62176074 -15.0234375 44.859375 C-14.08064553 37.82292764 -11.68792509 31.16237328 -9.38964844 24.47607422 C-8.623057 22.24434347 -7.87282178 20.00761307 -7.125 17.76953125 C-6.63896215 16.33041091 -6.15201444 14.89159747 -5.6640625 13.453125 C-5.44207184 12.79362854 -5.22008118 12.13413208 -4.99136353 11.45465088 C-3.61312347 7.46214074 -1.96624003 3.73664803 0 0 Z M5 19 C4.34 22.3 3.68 25.6 3 29 C4.65 29 6.3 29 8 29 C7.34 25.7 6.68 22.4 6 19 C5.67 19 5.34 19 5 19 Z " fill="#102853" transform="translate(254,242)"/>
<path d="M0 0 C3.87221424 4.46793951 4.65861857 7.89223268 4.3125 13.6875 C3.0673699 23.04696106 -1.95967937 29.28113847 -8.5625 35.8125 C-9.5525 36.3075 -9.5525 36.3075 -10.5625 36.8125 C-6.2725 37.1425 -1.9825 37.4725 2.4375 37.8125 C2.6328125 45.4296875 2.6328125 45.4296875 2.4375 47.8125 C-0.39509575 50.64509575 -2.2894466 50.07088261 -6.25 50.078125 C-6.90830811 50.08003845 -7.56661621 50.0819519 -8.24487305 50.08392334 C-9.6368854 50.0852845 -11.02891047 50.08159283 -12.42089844 50.07324219 C-14.55432589 50.062541 -16.68691131 50.07313906 -18.8203125 50.0859375 C-20.17187686 50.08461589 -21.5234407 50.08205347 -22.875 50.078125 C-24.10863281 50.07586914 -25.34226562 50.07361328 -26.61328125 50.07128906 C-29.5625 49.8125 -29.5625 49.8125 -31.5625 47.8125 C-32.49296853 43.9842866 -32.4598035 40.64463044 -31.5625 36.8125 C-28.2002527 32.18197867 -23.91486343 28.70586569 -19.48046875 25.13671875 C-15.20031067 21.67715743 -12.20900994 18.18787069 -10.5625 12.8125 C-10.8925 12.1525 -11.2225 11.4925 -11.5625 10.8125 C-12.8825 11.1425 -14.2025 11.4725 -15.5625 11.8125 C-16.2225 14.4525 -16.8825 17.0925 -17.5625 19.8125 C-19.02042884 19.86649736 -20.47892712 19.90529177 -21.9375 19.9375 C-23.15566406 19.97230469 -23.15566406 19.97230469 -24.3984375 20.0078125 C-26.5625 19.8125 -26.5625 19.8125 -28.5625 17.8125 C-29.62371364 12.50643178 -30.00558117 8.80971148 -27.5625 3.8125 C-24.54302666 -0.09505373 -21.77748957 -2.00848688 -16.875 -2.96484375 C-11.03169366 -3.52745939 -4.85857001 -3.68253473 0 0 Z " fill="#102853" transform="translate(436.5625,244.1875)"/>
<path d="M0 0 C1.18722656 -0.01933594 2.37445313 -0.03867188 3.59765625 -0.05859375 C7.51764304 0.52367329 9.14399878 1.6850043 11.9375 4.4375 C13.78902133 8.14054267 13.39389068 12.39518255 12.9375 16.4375 C11.375 19.0625 11.375 19.0625 8.9375 20.4375 C5.1875 20.6875 5.1875 20.6875 1.9375 20.4375 C0.4525 16.9725 0.4525 16.9725 -1.0625 13.4375 C-2.0525 13.7675 -3.0425 14.0975 -4.0625 14.4375 C-3.97529375 16.85123056 -3.97529375 16.85123056 -3.0625 19.4375 C-0.68258811 21.13169635 -0.68258811 21.13169635 2.25 22.375 C10.00844316 26.38520828 10.00844316 26.38520828 11.9375 31.4375 C12.64376482 37.38379411 12.78544598 42.54592819 10.3125 48.0625 C6.07166063 52.30333937 2.55122031 53.61841784 -3.375 53.875 C-8.76190396 53.72045767 -13.61959611 52.60123816 -18.0625 49.4375 C-20.28476446 46.26479012 -20.18299124 43.95323344 -19.6875 40.1875 C-19.57664062 39.29546875 -19.46578125 38.4034375 -19.3515625 37.484375 C-19.20847656 36.47117187 -19.20847656 36.47117187 -19.0625 35.4375 C-17.30859375 34.78515625 -17.30859375 34.78515625 -15.0625 34.4375 C-13.09765625 35.43359375 -13.09765625 35.43359375 -11.125 36.875 C-7.95842494 39.01761714 -5.99231998 40.05153437 -2.0625 39.4375 C-3.4888548 35.81793298 -4.98188174 34.63660798 -8.4375 32.9375 C-13.06925383 30.50992484 -16.35076013 28.57271962 -18.0625 23.4375 C-18.78406785 16.47952431 -18.64181448 10.98449749 -14.7421875 5.05859375 C-10.39791513 0.86586577 -5.87351492 0.0063912 0 0 Z " fill="#0E234A" transform="translate(96.0625,241.5625)"/>
<path d="M0 0 C3.60391419 4.30144597 4.12591655 7.91103079 3.6875 13.375 C3.33645499 16.31500196 2.94497091 18.29643754 1.6875 21 C0.6735413 24.12637265 1.93155143 25.40527458 3.3125 28.22265625 C4.62992736 32.62780398 3.35635343 37.0559397 1.9375 41.3125 C-0.67605645 45.9829348 -4.72980883 49.26966666 -9.84765625 50.87109375 C-15.82295177 52.06193748 -22.0476404 52.06380358 -27.75 49.9375 C-30.0625 48.3125 -30.0625 48.3125 -31.0625 46.3125 C-31.96617395 38.50534962 -31.96617395 38.50534962 -29.5 35.25 C-26.1721188 33.97004569 -23.59258193 33.92026867 -20.0625 34.3125 C-19.4025 35.3025 -18.7425 36.2925 -18.0625 37.3125 C-14.77174004 36.93345792 -14.77174004 36.93345792 -12.0625 35.3125 C-12.02186168 33.64632885 -12.019779 31.97861905 -12.0625 30.3125 C-12.91714844 30.17972656 -13.77179688 30.04695313 -14.65234375 29.91015625 C-15.75707031 29.73355469 -16.86179687 29.55695313 -18 29.375 C-19.10214844 29.20097656 -20.20429688 29.02695312 -21.33984375 28.84765625 C-24.0625 28.3125 -24.0625 28.3125 -25.0625 27.3125 C-24.8125 23.875 -24.8125 23.875 -24.0625 20.3125 C-20.77758627 18.12255752 -19.23154361 17.95972661 -15.375 17.6875 C-14.38113281 17.61273438 -13.38726562 17.53796875 -12.36328125 17.4609375 C-11.60402344 17.41195313 -10.84476562 17.36296875 -10.0625 17.3125 C-10.0625 15.6625 -10.0625 14.0125 -10.0625 12.3125 C-12.13803648 11.7590236 -13.90615964 11.3125 -16.0625 11.3125 C-16.3925 12.3025 -16.7225 13.2925 -17.0625 14.3125 C-20.24386394 14.52941118 -22.50219547 14.56316255 -25.4375 13.25 C-27.0625 11.3125 -27.0625 11.3125 -27.625 7.9375 C-27.0625 4.3125 -27.0625 4.3125 -25.0625 1.5 C-17.88694755 -3.73217366 -7.81391204 -4.305625 0 0 Z " fill="#0E234A" transform="translate(399.0625,243.6875)"/>
<path d="M0 0 C1.084021 0.00523682 2.16804199 0.01047363 3.28491211 0.01586914 C5.03964844 0.02070313 5.03964844 0.02070313 6.82983398 0.02563477 C8.67738281 0.03820312 8.67738281 0.03820312 10.56225586 0.05102539 C12.41560547 0.05779297 12.41560547 0.05779297 14.30639648 0.06469727 C17.37089703 0.07652931 20.43530307 0.09301366 23.49975586 0.11352539 C23.74975586 7.61352539 23.74975586 7.61352539 21.49975586 12.11352539 C17.53975586 12.11352539 13.57975586 12.11352539 9.49975586 12.11352539 C9.49975586 14.09352539 9.49975586 16.07352539 9.49975586 18.11352539 C9.16975586 18.77352539 8.83975586 19.43352539 8.49975586 20.11352539 C11.79975586 20.11352539 15.09975586 20.11352539 18.49975586 20.11352539 C18.69506836 27.73071289 18.69506836 27.73071289 18.49975586 30.11352539 C16.49975586 32.11352539 16.49975586 32.11352539 14.55444336 32.30883789 C12.53621419 32.24373372 10.51798503 32.17862956 8.49975586 32.11352539 C8.16975586 34.75352539 7.83975586 37.39352539 7.49975586 40.11352539 C12.44975586 40.11352539 17.39975586 40.11352539 22.49975586 40.11352539 C22.74975586 48.73852539 22.74975586 48.73852539 20.49975586 52.11352539 C16.56190941 52.80756124 12.55405705 52.62276033 8.56225586 52.61352539 C7.45172852 52.64188477 6.34120117 52.67024414 5.19702148 52.69946289 C4.13290039 52.70204102 3.0687793 52.70461914 1.97241211 52.70727539 C0.9953833 52.71436523 0.01835449 52.72145508 -0.98828125 52.72875977 C-3.50024414 52.11352539 -3.50024414 52.11352539 -5.34912109 50.04541016 C-6.76933679 46.42815242 -6.70362938 43.40246872 -6.39086914 39.60961914 C-6.34460388 38.89048843 -6.29833862 38.17135773 -6.25067139 37.43043518 C-6.09929093 35.13594131 -5.92507271 32.8438393 -5.75024414 30.55102539 C-5.64718974 29.03745436 -5.54561373 27.5237819 -5.44555664 26.01000977 C-5.20122485 22.3790556 -4.93382056 18.75037373 -4.65380859 15.12200928 C-4.50759172 13.20962508 -4.36990272 11.29659452 -4.23266602 9.38354492 C-4.10988281 7.7513501 -4.10988281 7.7513501 -3.98461914 6.08618164 C-3.87972168 4.66897827 -3.87972168 4.66897827 -3.77270508 3.22314453 C-3.37651546 0.15551509 -3.12781663 0.14202077 0 0 Z " fill="#102853" transform="translate(118.500244140625,241.886474609375)"/>
<path d="M0 0 C3.92693566 2.06639155 6.53638811 4.30458216 9 8 C9.86934878 13.23439476 9.69155814 17.69251183 6.625 22.125 C5.325625 23.548125 5.325625 23.548125 4 25 C3.34 25 2.68 25 2 25 C2 25.66 2 26.32 2 27 C-1.48167836 27.56743651 -4.53285695 27.72462787 -8 27 C-11.91211334 24.02981905 -14.42944335 20.40814256 -15.56640625 15.609375 C-15.84370278 10.34968604 -14.46936685 7.04759466 -11 3 C-7.61191373 -0.50491683 -4.75945264 -0.64534951 0 0 Z " fill="#102853" transform="translate(204,57)"/>
<path d="M0 0 C3.28009791 2.55862513 4.99481294 6.00994449 6 10 C6.21172368 14.57950477 5.60399448 17.98615212 3.25 21.9375 C-0.04166383 24.95485851 -2.62360966 25.79927641 -7 26.4375 C-11.05318782 25.84641011 -12.38461974 24.05127697 -15 21 C-15.66 20.34 -16.32 19.68 -17 19 C-17.89333568 13.3393441 -18.11907285 7.5660691 -14.6875 2.75 C-10.63221556 -1.22767134 -5.32478299 -1.15356366 0 0 Z " fill="#102853" transform="translate(207,143)"/>
<path d="M0 0 C4.58009636 0.88040729 7.31864244 3.26712967 10 7 C12.26483816 12.19481466 13.44910423 17.31134642 13 23 C13.66 23 14.32 23 15 23 C14.938125 21.845 14.87625 20.69 14.8125 19.5 C14.85190127 12.05315911 17.70024739 6.86743778 22.40234375 1.25 C24 0 24 0 28 0 C28 2.97 28 5.94 28 9 C27.34 9 26.68 9 26 9 C25.9071875 10.5159375 25.9071875 10.5159375 25.8125 12.0625 C25.19197277 16.47813583 23.09849568 19.82986281 20 23 C19.01 23.33 18.02 23.66 17 24 C16.67 29.28 16.34 34.56 16 40 C14.02 40.495 14.02 40.495 12 41 C10.24070501 39.24070501 10.89883425 36.92279436 10.86206055 34.578125 C10.90584158 26.66703247 10.90584158 26.66703247 7.1875 20 C6.65253906 19.50242188 6.11757812 19.00484375 5.56640625 18.4921875 C2.16597529 15.25287422 0.20750328 11.14866295 -0.2421875 6.4921875 C-0.24902396 4.31135691 -0.18105182 2.17262188 0 0 Z " fill="#7DC00B" transform="translate(240,125)"/>
<path d="M0 0 C1.875 0.5 1.875 0.5 4 2 C6.51345426 9.03767193 7.52089113 16.25966891 4.65625 23.3046875 C3.18357895 26.25697616 1.64930914 29.14316095 0 32 C-0.99 32 -1.98 32 -3 32 C-6.62049495 25.45401582 -8.39963678 19.47835126 -7 12 C-5.24273388 7.84930614 -3.23313123 3.23313123 0 0 Z " fill="#102853" transform="translate(190,168)"/>
<path d="M0 0 C-0.24408833 6.83447318 -2.11560623 11.12704509 -7 16 C-9.67232405 17.62933932 -10.80541288 18 -14 18 C-14 18.66 -14 19.32 -14 20 C-16.64 20 -19.28 20 -22 20 C-22 12.63303461 -20.27370963 9.08693831 -15.1171875 3.8203125 C-10.41523805 -0.22232301 -6.00253375 -0.24010135 0 0 Z " fill="#102853" transform="translate(187,164)"/>
<path d="M0 0 C2 2 2 2 2 5 C-4.57783359 9.26670287 -11.44887041 8.6873154 -18.875 7.25 C-22.15631084 5.93747567 -24.3949904 4.36819055 -27 2 C-26.6875 0.125 -26.6875 0.125 -26 -2 C-17.29091277 -7.80605815 -8.0297186 -5.49752518 0 0 Z " fill="#102853" transform="translate(182,155)"/>
<path d="M0 0 C4.01328799 0.59456118 6.24139664 2.03450139 9 5 C11.64599877 10.96848265 13.26426708 16.44226134 13 23 C10.625 22.75 10.625 22.75 8 22 C6.875 20 6.875 20 6 18 C5.01 17.67 4.02 17.34 3 17 C0.46543608 11.55538121 -0.38750411 5.94172964 0 0 Z " fill="#7AC00A" transform="translate(240,85)"/>
<path d="M0 0 C0.99 0.33 1.98 0.66 3 1 C6.09738937 9.21481528 6.62674479 19.63903041 3.5 27.9375 C3.005 28.948125 2.51 29.95875 2 31 C-2.15724827 25.75825218 -2.18236068 21.61678404 -2.1875 15.1875 C-2.19974609 14.39279297 -2.21199219 13.59808594 -2.22460938 12.77929688 C-2.23618411 8.11467732 -1.78774425 4.38809952 0 0 Z " fill="#7EC00B" transform="translate(252,61)"/>
<path d="M0 0 C-0.17644383 7.53896378 -1.78573289 13.66641938 -6 20 C-9 22 -9 22 -12 22 C-12.62287992 13.5565167 -11.29912185 8.12390232 -6 1.5 C-4 0 -4 0 0 0 Z " fill="#7AC00A" transform="translate(267,86)"/>
<path d="M0 0 C3.29702607 0.27475217 4.71941215 0.72766473 7.125 3.0625 C11.13487657 9.34463996 12.397444 14.58104527 12 22 C9.875 22 9.875 22 7 21 C1.74485034 15.61912906 0.00215402 11.0709891 -0.0625 3.6875 C-0.041875 2.470625 -0.02125 1.25375 0 0 Z " fill="#7AC00A" transform="translate(241,107)"/>
<path d="M0 0 C-0.42089996 5.60461531 -0.91613111 10.72086547 -3 16 C-3.66 16 -4.32 16 -5 16 C-5.3403125 16.928125 -5.3403125 16.928125 -5.6875 17.875 C-7.37929835 20.61410209 -8.99244161 21.05024472 -12 22 C-12.62287992 13.5565167 -11.29912185 8.12390232 -6 1.5 C-4 0 -4 0 0 0 Z " fill="#7AC00A" transform="translate(267,107)"/>
<path d="M0 0 C3.74223885 0.72900757 6.00028464 2.2020014 8.671875 4.98828125 C12.08403886 10.15670592 12.10886778 16.9796118 12 23 C6.6948069 21.63580749 4.68107993 18.4717282 2 14 C-0.50759077 9.4624548 -0.19799014 5.04874861 0 0 Z " fill="#79C00A" transform="translate(240,125)"/>
<path d="M0 0 C2.29013653 3.4352048 2.17842973 4.985331 2 9 C2.66 9 3.32 9 4 9 C4 6.36 4 3.72 4 1 C4.33 1 4.66 1 5 1 C5 3.31 5 5.62 5 8 C6.65 7.67 8.3 7.34 10 7 C9.67 7.66 9.34 8.32 9 9 C8.01 9.33 7.02 9.66 6 10 C5.67 15.28 5.34 20.56 5 26 C3.68 26.33 2.36 26.66 1 27 C-1.03571286 24.96428714 -0.36876544 20.87432194 -0.5 18.0625 C-0.54291236 12.87297382 -0.54291236 12.87297382 -2 8 C-1.34 8 -0.68 8 0 8 C0 5.36 0 2.72 0 0 Z " fill="#B9C11E" transform="translate(251,139)"/>
<path d="M0 0 C0.66 0.33 1.32 0.66 2 1 C1.67 1.66 1.34 2.32 1 3 C1.61488281 2.95359375 2.22976562 2.9071875 2.86328125 2.859375 C5.29745175 2.75067201 7.57936402 2.70815027 10 3 C12.0625 5 12.0625 5 13 7 C12.34 7 11.68 7 11 7 C10.67 7.66 10.34 8.32 10 9 C9.01 9.33 8.02 9.66 7 10 C5.76049958 12.09138456 5.76049958 12.09138456 4.8125 14.5625 C4.46832031 15.38878906 4.12414062 16.21507812 3.76953125 17.06640625 C3.38861328 18.02353516 3.38861328 18.02353516 3 19 C2.67 18.34 2.34 17.68 2 17 C1.34 16.67 0.68 16.34 0 16 C0.680625 15.2575 0.680625 15.2575 1.375 14.5 C3.58159367 11.10524051 4.14391425 7.95116502 5 4 C1.37 4.66 -2.26 5.32 -6 6 C-6 5.67 -6 5.34 -6 5 C-6.77085937 4.95101562 -7.54171875 4.90203125 -8.3359375 4.8515625 C-9.33882812 4.77679688 -10.34171875 4.70203125 -11.375 4.625 C-12.87160156 4.52058594 -12.87160156 4.52058594 -14.3984375 4.4140625 C-17 4 -17 4 -19 2 C-17.96359375 2.02320313 -16.9271875 2.04640625 -15.859375 2.0703125 C-14.48959056 2.08907667 -13.1197983 2.10727618 -11.75 2.125 C-10.72712891 2.15013672 -10.72712891 2.15013672 -9.68359375 2.17578125 C-5.85596316 2.21294271 -3.31989176 1.881272 0 0 Z " fill="#fec335" transform="translate(182,160)"/>
<path d="M0 0 C0.99 0 1.98 0 3 0 C3 5.61 3 11.22 3 17 C2.01 17 1.02 17 0 17 C0 11.39 0 5.78 0 0 Z " fill="#7AC00A" transform="translate(252,149)"/>
<path d="M0 0 C0.66 0.33 1.32 0.66 2 1 C1.67 1.66 1.34 2.32 1 3 C2.65 3 4.3 3 6 3 C6 4.65 6 6.3 6 8 C5.67 6.68 5.34 5.36 5 4 C1.37 4.66 -2.26 5.32 -6 6 C-6 5.67 -6 5.34 -6 5 C-6.77085937 4.95101562 -7.54171875 4.90203125 -8.3359375 4.8515625 C-9.33882812 4.77679688 -10.34171875 4.70203125 -11.375 4.625 C-12.87160156 4.52058594 -12.87160156 4.52058594 -14.3984375 4.4140625 C-17 4 -17 4 -19 2 C-17.96359375 2.02320313 -16.9271875 2.04640625 -15.859375 2.0703125 C-14.48959056 2.08907667 -13.1197983 2.10727618 -11.75 2.125 C-10.72712891 2.15013672 -10.72712891 2.15013672 -9.68359375 2.17578125 C-5.85596316 2.21294271 -3.31989176 1.881272 0 0 Z " fill="#102853" transform="translate(182,160)"/>
<path d="M0 0 C0.99 0.33 1.98 0.66 3 1 C2.50628906 1.40089844 2.01257813 1.80179687 1.50390625 2.21484375 C-2.25315454 5.54857375 -4.41871185 7.81446705 -4.9375 12.9375 C-4.98946424 14.29082964 -5.02149454 15.64584367 -5 17 C-5.33 17 -5.66 17 -6 17 C-6.92017937 7.42331839 -6.92017937 7.42331839 -4.6640625 3.93359375 C-3 2.3125 -3 2.3125 0 0 Z " fill="#102853" transform="translate(411,275)"/>
<path d="M0 0 C-1.12904127 2.54034287 -2.10349074 4.10044689 -4.125 6.0625 C-6.96395832 10.51020137 -6.324026 14.86058759 -6 20 C-6.66 19.67 -7.32 19.34 -8 19 C-8.91331924 8.69978858 -8.91331924 8.69978858 -6.734375 4.64453125 C-2.78891753 0 -2.78891753 0 0 0 Z " fill="#102853" transform="translate(198,143)"/>
<path d="M0 0 C-1.44077046 3.36179774 -3.24750021 5.59156268 -6 8 C-6.66 8 -7.32 8 -8 8 C-6.48291727 4.46014029 -4.24676932 0 0 0 Z " fill="#102853" transform="translate(176,166)"/>
<path d="M0 0 C-1.44077046 3.36179774 -3.24750021 5.59156268 -6 8 C-6.66 8 -7.32 8 -8 8 C-6.48291727 4.46014029 -4.24676932 0 0 0 Z " fill="#fec335" transform="translate(123,36)"/>
<path d="M0 0 C1.32 0.33 2.64 0.66 4 1 C3.01 1.495 3.01 1.495 2 2 C2 4.31 2 6.62 2 9 C0 7 0 7 -0.125 3.375 C-0.08375 2.26125 -0.0425 1.1475 0 0 Z " fill="#A6C118" transform="translate(240,85)"/>
<path d="M0 0 C-1.28519565 2.86697492 -2.57129254 4.97607712 -5 7 C-5.66 7 -6.32 7 -7 7 C-3.86206897 0 -3.86206897 0 0 0 Z " fill="#102853" transform="translate(289,59)"/>
<path d="M0 0 C0.66 0.99 1.32 1.98 2 3 C0.625 6.6875 0.625 6.6875 -1 10 C-1.33 9.34 -1.66 8.68 -2 8 C-2.66 7.67 -3.32 7.34 -4 7 C-3.525625 6.401875 -3.05125 5.80375 -2.5625 5.1875 C-0.83534256 2.99617076 -0.83534256 2.99617076 0 0 Z " fill="#fec335" transform="translate(186,169)"/>
<path d="M0 0 C4 4.625 4 4.625 4 8 C2.35 6.35 0.7 4.7 -1 3 C-0.67 2.01 -0.34 1.02 0 0 Z " fill="#fec335" transform="translate(244,122)"/>
<path d="M0 0 C0.66 0.99 1.32 1.98 2 3 C0.35 4.65 -1.3 6.3 -3 8 C-3 7.34 -3 6.68 -3 6 C-3.66 5.67 -4.32 5.34 -5 5 C-3.35 3.35 -1.7 1.7 0 0 Z " fill="#fec335" transform="translate(262,123)"/>
</svg>
